<svg width="128" height="128" viewBox="0 0 128 128" fill="none" xmlns="http://www.w3.org/2000/svg">
<path d="M63.9998 21.3333C40.4637 21.3333 21.3332 40.5279 21.3332 64.2684C21.3332 71.0008 22.8693 77.3564 25.6021 83.0133C26.8834 85.6656 25.7721 88.8543 23.1198 90.1356C20.4676 91.4169 17.2788 90.3056 15.9975 87.6533C12.5801 80.5794 10.6665 72.6406 10.6665 64.2684C10.6665 34.6931 34.5167 10.6667 63.9998 10.6667C93.483 10.6667 117.333 34.6931 117.333 64.2684C117.333 72.6406 115.42 80.5794 112.002 87.6533C110.721 90.3056 107.532 91.4169 104.88 90.1356C102.228 88.8543 101.116 85.6656 102.398 83.0133C105.13 77.3564 106.667 71.0008 106.667 64.2684C106.667 40.5279 87.536 21.3333 63.9998 21.3333Z" fill="white"/>
<path fill-rule="evenodd" clip-rule="evenodd" d="M77.3945 87.0636C85.3313 82.4441 90.6665 73.8451 90.6665 64C90.6665 49.2724 78.7274 37.3333 63.9998 37.3333C49.2722 37.3333 37.3332 49.2724 37.3332 64C37.3332 73.8451 42.6683 82.4441 50.6052 87.0636C42.4417 89.2757 36.1964 93.3065 31.6665 97.3581C28.3182 100.353 25.9129 103.349 24.3323 105.618C23.54 106.755 22.9486 107.718 22.544 108.42C22.3416 108.771 22.1854 109.058 22.0737 109.269C22.0179 109.375 21.9731 109.462 21.9392 109.529L21.8965 109.614L21.8812 109.645L21.875 109.658L21.8723 109.663C21.8711 109.666 21.8699 109.668 26.6665 112L21.8699 109.668C20.5821 112.317 21.6857 115.509 24.3348 116.797C26.9767 118.081 30.158 116.987 31.4526 114.353L31.4556 114.347L31.5054 114.252C31.5588 114.15 31.6517 113.979 31.7855 113.747C32.0534 113.282 32.4829 112.578 33.0841 111.716C34.2904 109.984 36.163 107.647 38.7776 105.309C43.9557 100.677 52.0679 96 63.9998 96C75.9318 96 84.044 100.677 89.2221 105.309C91.8367 107.647 93.7092 109.984 94.9156 111.716C95.5168 112.578 95.9463 113.282 96.2142 113.747C96.348 113.979 96.4409 114.15 96.4943 114.252L96.5441 114.347L96.547 114.353C97.8415 116.987 101.023 118.081 103.665 116.797C106.314 115.509 107.418 112.317 106.13 109.668L101.333 112C106.13 109.668 106.129 109.666 106.127 109.663L106.118 109.645L106.103 109.614L106.06 109.529C106.027 109.462 105.982 109.375 105.926 109.269C105.814 109.058 105.658 108.771 105.456 108.42C105.051 107.718 104.46 106.755 103.667 105.618C102.087 103.349 99.6815 100.353 96.3331 97.3581C91.8033 93.3065 85.558 89.2757 77.3945 87.0636ZM63.9998 80C72.8364 80 79.9998 72.8366 79.9998 64C79.9998 55.1634 72.8364 48 63.9998 48C55.1633 48 47.9998 55.1634 47.9998 64C47.9998 72.8366 55.1633 80 63.9998 80Z" fill="white"/>
</svg>
