<svg width="128" height="128" viewBox="0 0 128 128" fill="none" xmlns="http://www.w3.org/2000/svg">
<path d="M42.6667 32C39.7211 32 37.3333 34.3878 37.3333 37.3333C37.3333 40.2789 39.7211 42.6667 42.6667 42.6667H85.3333C88.2789 42.6667 90.6667 40.2789 90.6667 37.3333C90.6667 34.3878 88.2789 32 85.3333 32H42.6667Z" fill="white"/>
<path d="M37.3333 58.6667C37.3333 55.7211 39.7211 53.3333 42.6667 53.3333H85.3333C88.2789 53.3333 90.6667 55.7211 90.6667 58.6667C90.6667 61.6122 88.2789 64 85.3333 64H42.6667C39.7211 64 37.3333 61.6122 37.3333 58.6667Z" fill="white"/>
<path d="M42.6667 74.6667C39.7211 74.6667 37.3333 77.0545 37.3333 80C37.3333 82.9455 39.7211 85.3333 42.6667 85.3333H64C66.9455 85.3333 69.3333 82.9455 69.3333 80C69.3333 77.0545 66.9455 74.6667 64 74.6667H42.6667Z" fill="white"/>
<path fill-rule="evenodd" clip-rule="evenodd" d="M26.6667 10.6667C20.7756 10.6667 16 15.4423 16 21.3333V106.667C16 112.558 20.7756 117.333 26.6667 117.333H101.333C107.224 117.333 112 112.558 112 106.667V21.3333C112 15.4423 107.224 10.6667 101.333 10.6667H26.6667ZM101.333 21.3333H26.6667L26.6667 106.667H72.3316L101.333 75.2481V21.3333ZM101.333 106.667H86.8479L101.333 90.9741V106.667Z" fill="white"/>
</svg>
